<svg width="115" height="211" viewBox="0 0 115 211" fill="none" xmlns="http://www.w3.org/2000/svg">
<rect x="30" y="136" width="9" height="75" rx="4.5" fill="#D2BD1A"/>
<rect x="36" y="157" width="9" height="36" rx="4.5" transform="rotate(90 36 157)" fill="#A2B539"/>
<path d="M115 42.5C115 34.0943 112.507 25.8774 107.837 18.8883C103.167 11.8992 96.5299 6.45184 88.764 3.23512C80.9982 0.0183954 72.4529 -0.823246 64.2087 0.816626C55.9645 2.4565 48.3917 6.50423 42.448 12.448C36.5042 18.3917 32.4565 25.9645 30.8166 34.2087C29.1768 42.4529 30.0184 50.9982 33.2351 58.764C36.4518 66.5299 41.8992 73.1675 48.8883 77.8375C55.8774 82.5074 64.0943 85 72.5 85L72.5 42.5H115Z" fill="#DFDE90"/>
<path d="M30 42C46.4434 42 62.2134 48.5321 73.8406 60.1594C85.4679 71.7866 92 87.5566 92 104C92 120.443 85.4679 136.213 73.8406 147.841C62.2134 159.468 46.4434 166 30 166L30 42Z" fill="#85A725"/>
<path d="M115 42.5C115 36.9188 113.901 31.3923 111.765 26.236C109.629 21.0796 106.499 16.3945 102.552 12.448C98.6055 8.50147 93.9204 5.37094 88.764 3.23512C83.6077 1.09929 78.0812 -2.43961e-07 72.5 0L72.5 42.5H115Z" fill="#DC8F6A"/>
<path d="M105.5 52C106.748 52 107.983 51.7543 109.135 51.2769C110.288 50.7994 111.335 50.0997 112.218 49.2175C113.1 48.3354 113.799 47.2881 114.277 46.1355C114.754 44.9829 115 43.7476 115 42.5L105.5 42.5L105.5 52Z" fill="#BB5929"/>
<circle cx="65.25" cy="9.25" r="4.25" fill="black"/>
</svg>
